# xmcd
#
# Track frame offsets:
# 150
# 14660
# 27468
# 37747
# 48090
# 61312
# 74736
# 86051
# 99815
# 115808
# 127023
# 141824
# 155408
# 167968
# 181592
# 192987
# 202365
# 212629
# 227425
# 241417
#
# Disc length: 3381 seconds
#
# Revision: 0
# Processed by: cddbd v1.4PL0 Copyright (c) Steve Scherf et al.
# Submitted via: Axialis_AX_CDPlayer 2.6
#
DISCID=190d3314
DTITLE=Kitty Wells - The Very Best Of
DYEAR=1900
DGENRE=
TTITLE0=It Wasn't God Who Made Honky Tonk Angels
TTITLE1=Mommy For A Day
TTITLE2=I'll Reposess My Heart
TTITLE3=Release Me
TTITLE4=I Gave My Wedding Dress Away
TTITLE5=Amigo's Guitar
TTITLE6=Heartbreak U.S.A.
TTITLE7=Making Believe
TTITLE8=I'll Get Over You
TTITLE9=A Wedding Ring Ago
TTITLE10=If You Love Me Let Me Know
TTITLE11=Blue Eyes Crying In The Rain
TTITLE12=You And Me
TTITLE13=Paper Roses
TTITLE14=I Can't Help It If I'm Still In Love With You
TTITLE15=I'll Hold You In My Arms
TTITLE16=I Can't Stop Loving You
TTITLE17=One By One
TTITLE18=Born To Lose
TTITLE19=There Goes My Everything
EXTD=
EXTT0=
EXTT1=
EXTT2=
EXTT3=
EXTT4=
EXTT5=
EXTT6=
EXTT7=
EXTT8=
EXTT9=
EXTT10=
EXTT11=
EXTT12=
EXTT13=
EXTT14=
EXTT15=
EXTT16=
EXTT17=
EXTT18=
EXTT19=
PLAYORDER=
